<!DOCTYPE svg PUBLIC "-//W3C//DTD SVG 1.1//EN" "http://www.w3.org/Graphics/SVG/1.1/DTD/svg11.dtd">
<!-- Uploaded to: SVG Repo, www.svgrepo.com, Transformed by: SVG Repo Mixer Tools -->
<svg fill="#000000" width="256px" height="256px" viewBox="-3.52 -3.52 39.04 39.04" xmlns="http://www.w3.org/2000/svg" stroke="#000000" stroke-width="0.00032" transform="rotate(0)">
<g id="SVGRepo_bgCarrier" stroke-width="0" transform="translate(13.92,13.92), scale(0.13)">
<rect x="-3.52" y="-3.52" width="39.04" height="39.04" rx="19.52" fill="#9ea2a3" strokewidth="0"/>
</g>
<g id="SVGRepo_tracerCarrier" stroke-linecap="round" stroke-linejoin="round" stroke="#CCCCCC" stroke-width="6.4"> <g fill-rule="evenodd"> <path d="M16 32C7.163 32 0 24.837 0 16S7.163 0 16 0s16 7.163 16 16-7.163 16-16 16zm7.994-15.781L16.498 4 9 16.22l7.498 4.353 7.496-4.354zM24 17.616l-7.502 4.351L9 17.617l7.498 10.378L24 17.616z"/> <g fill-rule="nonzero"> <path fill-opacity=".298" d="M16.498 4v8.87l7.497 3.35zm0 17.968v6.027L24 17.616z"/> <path fill-opacity=".801" d="M16.498 20.573l7.497-4.353-7.497-3.348z"/> <path fill-opacity=".298" d="M9 16.22l7.498 4.353v-7.701z"/> </g> </g> </g>
<g id="SVGRepo_iconCarrier"> <g fill-rule="evenodd"> <path d="M16 32C7.163 32 0 24.837 0 16S7.163 0 16 0s16 7.163 16 16-7.163 16-16 16zm7.994-15.781L16.498 4 9 16.22l7.498 4.353 7.496-4.354zM24 17.616l-7.502 4.351L9 17.617l7.498 10.378L24 17.616z"/> <g fill-rule="nonzero"> <path fill-opacity=".298" d="M16.498 4v8.87l7.497 3.35zm0 17.968v6.027L24 17.616z"/> <path fill-opacity=".801" d="M16.498 20.573l7.497-4.353-7.497-3.348z"/> <path fill-opacity=".298" d="M9 16.22l7.498 4.353v-7.701z"/> </g> </g> </g>
</svg>